<svg xmlns="http://www.w3.org/2000/svg" width="23" height="26" viewBox="0 0 23 26"><path fill="#5d6989" d="M18.57 15.484V9.269a3.226 3.226 0 012.375 3.108 3.226 3.226 0 01-2.375 3.107zm-6.862 8.904c-.458 0-.845-.28-.845-.61 0-.33.387-.61.845-.61.458 0 .845.28.845.61 0 .33-.387.61-.845.61zM4.898 9.269v6.215a3.226 3.226 0 01-2.374-3.107 3.226 3.226 0 012.375-3.108zm16.07-.573a9.288 9.288 0 00-2.819-5.992A9.295 9.295 0 0011.655.078a9.29 9.29 0 00-6.54 2.67A9.281 9.281 0 002.33 8.853a4.894 4.894 0 00-1.497 3.525 4.914 4.914 0 004.91 4.908.844.844 0 00.844-.844v-8.13a.845.845 0 00-.845-.844c-.54 0-1.061.089-1.548.251.782-3.395 3.854-5.952 7.46-5.952a7.62 7.62 0 017.453 5.9 4.89 4.89 0 00-1.383-.2.845.845 0 00-.844.845v8.129c0 .466.378.844.844.844a4.89 4.89 0 001.322-.182 7.706 7.706 0 01-5.256 5.369c-.458-.6-1.22-.993-2.083-.993-1.397 0-2.534 1.031-2.534 2.299s1.137 2.299 2.534 2.299c1.274 0 2.33-.857 2.507-1.97 3.65-1.04 6.348-4.253 6.735-8.034a4.897 4.897 0 00.018-7.377z"/></svg>